# xmcd CD database file
#
# Track frame offsets:
#	150
#	21793
#	43871
#	70519
#	95727
#	112225
#	133930
#	152719
#	165354
#	180867
#	201954
#
# Disc length: 2875 seconds
#
# Revision: 0
# Processed by: cddbd v1.5.2PL0 Copyright (c) Steve Scherf et al.
# Submitted via: CDex 1.70beta2
#
DISCID=920b390b
DTITLE=naomi and goro and 菊地成孔 - calendula
DYEAR=2011
DGENRE=Bossa Nova
TTITLE0=The King of Rock'n Roll
TTITLE1=Cinema
TTITLE2=Brigitte
TTITLE3=Two Kites
TTITLE4=One on One
TTITLE5=The Girl from Ipanema
TTITLE6=So Tinha de Ser Com Voce
TTITLE7=A Banda
TTITLE8=calendula
TTITLE9=Aquarela do Brasil
TTITLE10=いちばん小さな讃美歌
EXTD=YEAR: 2011
EXTT0=
EXTT1=
EXTT2=
EXTT3=
EXTT4=
EXTT5=
EXTT6=
EXTT7=
EXTT8=
EXTT9=
EXTT10=
PLAYORDER=
